<svg xmlns="http://www.w3.org/2000/svg" xmlns:xlink="http://www.w3.org/1999/xlink" t="1725897055752" class="icon" viewBox="0 0 1024 1024" version="1.1" p-id="1525" data-spm-anchor-id="a313x.search_index.0.i0.3b943a813TNaJU" width="200" height="200"><path d="M1023.93992 34.957995c0-1.36 0-2.64-0.56-3.92s-0.719-2.32-1.039-3.439999-0.96-2.8-1.52-4.08a7.999999 7.999999 0 0 1-0.479999-1.279999c0-0.64-0.8-1.2-1.2-1.92s-1.44-2.399-2.24-3.599l-2.4-2.959999c-0.88-0.96-1.76-1.92-2.719999-2.8a28.717996 28.717996 0 0 0-2.88-2.559999l-3.199999-2.24c-1.119-0.64-2.239-1.28-3.439-1.84a26.877996 26.877996 0 0 0-3.439999-1.599999l-3.999999-1.28c-0.8 0-1.44-0.56-2.24-0.719h-1.28a39.997994 39.997994 0 0 0-4.318999-0.48h-3.68a34.237995 34.237995 0 0 0-3.919999 0.4l-3.919999 0.56-3.44 1.04-4.078999 1.279999a7.519999 7.519999 0 0 1-1.2 0.48L24.000076 466.612927a39.997994 39.997994 0 0 0-12.319998 8.799999 26.477996 26.477996 0 0 0-2.08 2.159999l-1.599999 2.4a52.556992 52.556992 0 0 0-3.2 4.958999 7.999999 7.999999 0 0 0 0 0.8 39.997994 39.997994 0 0 0 14.639998 51.836992L160.950055 651.081898l70.315989 55.996992a39.997994 39.997994 0 1 0 49.836992-62.635991L177.670052 561.727912l-0.8-0.48-62.31699-49.997992 813.392873-399.255937-167.989974 799.952875-188.38897-151.189977-0.56-0.8h-0.88a40.797994 40.797994 0 0 0-5.519999-3.599999 39.997994 39.997994 0 0 0-46.636993 6.878999L405.977017 855.549866V754.995882l356.778944-356.378944a40.877994 40.877994 0 0 0 6.319999-51.196992 39.997994 39.997994 0 0 0-61.91699-6.479999L338.540027 708.919889a40.797994 40.797994 0 0 0-9.758998 14.157998 37.357994 37.357994 0 0 0-2.16 7.199999 39.437994 39.437994 0 0 0 0 4.319999v210.786967a38.877994 38.877994 0 0 0 0.8 4.4l0.96 3.039999a42.477993 42.477993 0 0 0 1.839999 4.399999c0 0.88 0.88 1.76 1.36 2.64a36.717994 36.717994 0 0 0 2.8 4.079999s0.48 0.88 0.8 1.28a14.319998 14.319998 0 0 1 1.119999 1.04 34.077995 34.077995 0 0 0 3.44 3.358999 31.037995 31.037995 0 0 0 2.48 2.08 36.237994 36.237994 0 0 0 3.678999 2.4 22.558996 22.558996 0 0 0 3.039999 1.68 38.237994 38.237994 0 0 0 3.84 1.519999l3.519999 1.12a31.997995 31.997995 0 0 0 3.84 0.72 23.998996 23.998996 0 0 0 4.158999 0 11.679998 11.679998 0 0 0 1.76 0 14.479998 14.479998 0 0 0 1.84 0 26.317996 26.317996 0 0 0 4.319999 0 27.437996 27.437996 0 0 0 3.519999-0.72 37.917994 37.917994 0 0 0 4-1.2l3.358999-1.359999a38.317994 38.317994 0 0 0 3.6-2c1.12-0.64 2.16-1.36 3.199999-2.08a12.719998 12.719998 0 0 0 1.68-1.2l155.189976-127.99298 214.307966 171.989973s0.8 0.48 1.12 0.8 2.32 1.52 3.519999 2.24 2.24 1.36 3.44 1.92l3.279999 1.279999a29.917995 29.917995 0 0 0 4.32 1.36h3.358999a38.957994 38.957994 0 0 0 3.84 1.76h3.679999a33.837995 33.837995 0 0 0 3.999999 0 27.197996 27.197996 0 0 0 3.68-0.72l3.758999-1.12 3.44-1.439999 3.599999-1.92 3.12-2.08c1.04-0.72 2-1.52 3.039999-2.399999s1.999-2 2.959-3.04l1.599999-1.6a5.359999 5.359999 0 0 1 0.72-1.12 34.397995 34.397995 0 0 0 2.32-3.598999c0.64-1.12 1.28-2.16 1.84-3.28a26.717996 26.717996 0 0 0 1.359999-3.519999c0.48-1.36 0.96-2.72 1.36-4.079999a7.999999 7.999999 0 0 1 0.4-1.28L1023.21992 47.997993v-1.28a39.997994 39.997994 0 0 0 0.48-4.32v-3.599999a30.957995 30.957995 0 0 0 0.24-3.838999z" p-id="1526"/></svg>